# xmcd
#
# Track frame offsets:
#	150
#	13777
#	28248
#	48508
#	63729
#	81044
#	102265
#	125286
#	142192
#	158497
#	184600
#	198113
#	212128
#	228950
#
# Disc length: 3171 seconds
#
# Revision: 1
# Processed by: cddbd v1.5.2PL0 Copyright (c) Steve Scherf et al.
# Submitted via: audiograbber 1.83.01
#
DISCID=bd0c610e
DTITLE=Peter Green - Man of the world
DYEAR=1900
DGENRE=
TTITLE0=Man of the world
TTITLE1=Apostle
TTITLE2=Loser two times
TTITLE3=Fast talkin`woman blues
TTITLE4=Walkin`the road
TTITLE5=The green manalishi
TTITLE6=Cryin`won`t bring you back
TTITLE7=Trying to hit my head against the wall
TTITLE8=You won`t see me anymore
TTITLE9=Got to see her tonight
TTITLE10=Born on the wild side
TTITLE11=Shining star
TTITLE12=Same old blues
TTITLE13=Long grey mare
EXTD=
EXTT0=
EXTT1=
EXTT2=
EXTT3=
EXTT4=
EXTT5=
EXTT6=
EXTT7=
EXTT8=
EXTT9=
EXTT10=
EXTT11=
EXTT12=
EXTT13=
PLAYORDER=
